<svg id="Layer_1" data-name="Layer 1" xmlns="http://www.w3.org/2000/svg" viewBox="0 0 86.48 107.79"><defs><style>.cls-1{fill:#2d363f;}.cls-2,.cls-3,.cls-4{fill:none;stroke:#88ded3;stroke-linecap:round;stroke-miterlimit:10;}.cls-2{stroke-width:6.49px;}.cls-3{stroke-width:6.75px;}.cls-4{stroke-width:6.73px;}</style></defs><title>brandmark-dark</title><path class="cls-1" d="M74.49,66.15a42.13,42.13,0,0,0-12.54,2,13.27,13.27,0,0,0,7.58,10.48,8.17,8.17,0,1,1-1.34,11.24A24.09,24.09,0,0,1,51.89,73,43.92,43.92,0,0,0,32,110v14.38A2.41,2.41,0,0,0,34.73,127h78.85c2.5,0,4.42-1.5,4.42-4V109.4A43.16,43.16,0,0,0,74.49,66.15Z" transform="translate(-31.59 -19.21)"/><path class="cls-2" d="M74.83,85.55A18.29,18.29,0,1,1,92.9,64.42" transform="translate(-31.59 -19.21)"/><path class="cls-3" d="M45,56.89a31.69,31.69,0,0,1,59.59,0" transform="translate(-31.59 -19.21)"/><path class="cls-4" d="M35,46.68a45,45,0,0,1,79.75,0" transform="translate(-31.59 -19.21)"/></svg>